<?xml version="1.0" standalone="no"?>
<!DOCTYPE svg PUBLIC "-//W3C//DTD SVG 20010904//EN"
 "http://www.w3.org/TR/2001/REC-SVG-20010904/DTD/svg10.dtd">
<svg version="1.0" xmlns="http://www.w3.org/2000/svg"
 width="1280.000000pt" height="720.000000pt" viewBox="0 0 1280.000000 720.000000"
 preserveAspectRatio="xMidYMid meet">

<g transform="translate(0.000000,720.000000) scale(0.100000,-0.100000)"
fill="#000000" stroke="none">
<path d="M0 6903 c1 -263 2 -295 15 -273 8 14 14 32 15 41 0 8 8 33 19 55 10
21 29 73 41 114 12 41 26 84 30 95 4 11 17 43 29 72 12 28 21 58 21 66 0 8 6
27 14 43 7 16 17 41 20 57 l6 27 -105 0 -105 0 0 -297z"/>
<path d="M10400 7173 c0 -16 7 -68 15 -118 9 -49 17 -106 20 -125 2 -19 6 -46
9 -60 5 -25 23 -142 51 -340 8 -58 22 -150 31 -205 8 -55 21 -143 29 -195 7
-52 16 -106 19 -120 4 -14 8 -43 11 -65 7 -65 33 -192 34 -167 2 57 39 2 46
-68 4 -43 -2 -55 -21 -39 -12 10 -13 2 -8 -52 9 -88 23 -119 23 -52 1 73 17
74 24 2 4 -33 12 -69 18 -81 8 -15 8 -26 -2 -45 -10 -18 -10 -26 -2 -31 8 -5
9 -13 3 -22 -10 -16 -17 8 -23 72 -2 21 -7 41 -11 45 -8 8 -3 -62 12 -152 6
-39 9 -45 14 -27 3 12 11 22 16 22 13 0 24 -44 16 -63 -3 -8 -1 -18 5 -22 20
-12 13 -45 -10 -45 -19 0 -21 -4 -14 -32 4 -18 12 -58 18 -88 11 -52 13 -55
40 -52 26 3 28 2 17 -18 -10 -18 -14 -19 -27 -8 -14 11 -15 7 -10 -32 7 -71
38 -224 46 -235 13 -16 19 -65 10 -71 -20 -12 26 -317 52 -348 4 -4 5 -22 3
-40 -7 -40 8 -111 23 -111 21 0 28 -17 10 -26 -9 -6 -17 -15 -17 -22 0 -7 4
-6 10 3 5 8 12 11 16 7 4 -3 1 -13 -6 -21 -12 -16 -10 -43 12 -155 7 -38 13
-50 19 -40 8 12 10 12 18 0 5 -7 6 -22 4 -32 -5 -16 -8 -17 -21 -7 -14 11 -14
9 -8 -22 4 -19 10 -52 13 -72 3 -21 9 -38 14 -38 5 0 6 8 3 18 -5 14 -3 14 11
-3 14 -18 14 -20 1 -23 -9 -2 -16 -11 -15 -20 0 -12 2 -13 6 -4 4 10 9 9 24
-4 10 -9 19 -23 19 -31 0 -7 5 -13 12 -13 12 0 -21 -29 -34 -30 -5 0 -8 9 -8
20 0 11 -4 20 -9 20 -11 0 2 -70 18 -95 12 -20 12 -20 7 0 -3 11 -1 27 4 35 9
13 10 13 11 0 1 -8 1 -18 0 -22 0 -5 2 -8 7 -8 5 0 7 -100 1 -120 0 -3 -7 15
-14 40 -13 46 -20 26 -9 -28 4 -21 11 -29 20 -25 8 3 14 -1 14 -8 0 -7 12 -24
26 -36 19 -16 24 -26 17 -35 -17 -21 -25 -88 -14 -102 7 -8 8 -27 4 -47 -7
-33 -7 -33 -14 -9 -4 14 -7 42 -8 62 -1 20 -6 40 -12 44 -8 5 -9 -5 -4 -33 3
-22 8 -56 10 -77 3 -35 15 -64 15 -38 0 7 7 12 15 12 9 0 15 -9 15 -21 0 -14
-5 -19 -14 -16 -21 8 -25 -13 -14 -64 5 -24 12 -75 14 -114 7 -100 11 -115 34
-115 11 0 20 -7 20 -15 0 -9 -6 -12 -15 -9 -19 8 -19 -12 1 -141 27 -180 26
-174 34 -145 l6 25 13 -23 c14 -25 6 -46 -15 -38 -15 6 -15 11 10 -134 8 -47
27 -161 41 -255 37 -233 33 -219 50 -205 12 10 15 9 15 -3 0 -8 -3 -23 -6 -32
-6 -13 -9 -14 -16 -3 -7 9 -8 8 -4 -5 3 -10 9 -37 12 -60 10 -79 15 -92 24
-76 5 7 7 23 4 34 -4 18 -4 18 6 2 6 -9 8 -21 5 -27 -3 -5 0 -18 6 -28 9 -14
9 -23 0 -38 -9 -14 -11 -15 -7 -2 2 9 -2 22 -11 30 -14 11 -15 9 -10 -17 4
-17 9 -51 13 -78 9 -65 22 -68 17 -4 -3 38 -2 48 6 37 6 -8 11 -22 11 -31 0
-8 11 -29 24 -47 19 -26 22 -41 18 -80 -4 -44 -2 -48 19 -49 33 -3 58 -53 25
-53 -19 0 -26 -47 -10 -61 8 -6 14 -22 14 -35 0 -12 4 -26 10 -29 5 -3 17 -21
26 -40 9 -19 23 -35 30 -35 17 0 18 -21 2 -40 -7 -8 1 -3 18 13 34 31 46 33
63 13 10 -11 5 -21 -25 -50 -35 -34 -36 -36 -23 -66 8 -16 17 -31 21 -31 5 -1
14 -2 21 -3 15 -1 23 -56 8 -56 -6 0 -11 -4 -11 -10 0 -5 7 -10 15 -10 20 0
19 -16 -5 -54 -22 -37 -18 -85 7 -65 23 20 34 -2 22 -46 -8 -29 -8 -40 0 -43
19 -6 42 -34 38 -46 -2 -6 -23 -10 -48 -10 l-43 2 37 -34 c42 -39 44 -44 18
-44 -26 0 -44 -23 -29 -38 7 -7 20 -12 31 -12 17 0 17 -1 3 -16 -18 -17 -21
-44 -6 -44 7 0 7 -6 0 -20 -6 -11 -17 -20 -25 -20 -23 0 -29 -45 -10 -74 10
-14 14 -26 10 -26 -4 0 -2 -6 5 -14 9 -12 7 -17 -9 -28 -12 -7 -21 -19 -21
-26 0 -7 -4 -10 -10 -7 -6 4 -10 -19 -9 -62 1 -52 3 -61 9 -38 6 25 7 22 7
-20 0 -37 -2 -45 -9 -30 -5 13 -7 4 -3 -28 3 -30 1 -46 -5 -42 -11 7 -13 -34
-3 -61 6 -16 7 -16 14 2 7 17 8 17 8 2 1 -17 31 -18 494 -18 l492 0 10 23 c12
25 8 60 -6 52 -5 -3 -6 1 -3 9 3 9 2 16 -3 16 -5 0 -8 32 -8 70 0 39 -3 70 -7
70 -4 0 -8 7 -8 16 0 8 -9 35 -20 58 -11 24 -22 62 -26 85 -4 22 -10 39 -14
36 -4 -2 -6 54 -5 125 1 71 -1 127 -6 125 -14 -10 -22 17 -21 79 1 33 -2 77
-5 96 l-6 35 -8 -30 c-8 -29 -8 -28 -6 7 2 20 -1 34 -5 32 -8 -5 -13 41 -7 61
5 20 1 58 -8 64 -8 5 -31 118 -38 181 -5 50 -28 150 -34 150 -4 0 -5 18 -3 41
2 22 -1 59 -7 82 -11 39 -23 117 -37 227 -3 25 -9 56 -14 70 -13 34 -17 59
-25 165 -4 50 -14 103 -22 119 -8 15 -10 25 -4 22 16 -10 14 -2 -13 67 -20 53
-39 172 -39 242 1 31 -17 85 -29 85 -5 0 -7 12 -3 29 6 28 -27 199 -45 233 -6
11 -6 19 0 23 6 3 6 13 1 23 -11 22 -40 138 -45 177 -6 48 -10 59 -25 71 -11
9 -12 17 -3 44 13 36 6 80 -12 80 -6 0 -4 5 4 10 9 6 10 10 3 10 -6 0 -12 8
-11 18 0 52 -16 122 -29 122 -19 0 -28 27 -14 44 7 9 10 29 6 48 -3 18 -7 53
-10 78 -8 76 -27 145 -42 154 -10 5 -13 18 -9 40 5 29 1 67 -24 201 -5 28 -15
85 -21 128 -8 53 -15 74 -21 65 -6 -9 -8 -3 -4 15 4 15 1 37 -5 49 -7 13 -12
37 -11 55 1 23 -3 33 -13 33 -10 0 -15 10 -15 30 0 17 5 30 10 30 17 0 11 18
-7 22 -18 3 -26 59 -9 70 7 4 6 27 -2 70 -6 35 -14 83 -17 107 -3 25 -9 49
-14 55 -5 6 -12 37 -15 68 -4 32 -12 60 -17 63 -5 4 -9 15 -9 26 0 10 -4 19
-9 19 -5 0 -12 26 -15 58 -13 129 -20 164 -37 195 -6 10 -8 31 -4 46 3 16 0
39 -9 55 -8 16 -13 37 -11 47 2 11 1 19 -4 19 -9 0 -31 81 -31 114 0 14 -5 37
-11 53 -6 15 -12 55 -15 87 -2 33 -7 62 -12 65 -5 3 -15 44 -21 91 -7 47 -16
112 -21 145 -5 37 -5 64 1 72 7 7 6 13 -1 18 -5 3 -10 17 -10 31 0 15 -6 24
-15 24 -18 0 -19 14 -4 42 6 12 7 18 1 14 -6 -4 -9 8 -7 29 2 24 -1 35 -10 35
-12 0 -19 45 -25 165 0 11 -6 22 -11 26 -6 3 -12 25 -15 49 -2 24 -9 49 -15
56 -7 9 -8 32 -4 64 6 41 4 50 -8 50 -16 0 -22 31 -33 165 -3 38 -10 77 -15
87 -5 9 -9 48 -9 87 0 49 -4 71 -12 71 -9 0 -9 3 0 12 7 7 12 25 12 41 0 42
-30 165 -43 180 -7 6 -13 25 -14 41 0 16 -7 39 -14 52 l-12 24 -389 0 -388 0
0 -27z m600 -589 c0 -8 -5 -12 -10 -9 -6 4 -8 11 -5 16 9 14 15 11 15 -7z
m-360 -729 c0 -25 -4 -33 -14 -29 -8 3 -13 13 -11 22 2 9 4 23 4 30 2 29 21 9
21 -23z m690 -64 c0 -5 -6 -14 -14 -20 -16 -13 -32 2 -21 19 8 12 35 13 35 1z
m37 -79 c8 -5 4 -16 -13 -37 -26 -32 -37 -28 -48 18 -6 24 -4 27 21 27 16 0
33 -4 40 -8z m-167 -196 c0 -8 -4 -18 -10 -21 -5 -3 -10 3 -10 14 0 12 5 21
10 21 6 0 10 -6 10 -14z m72 -391 c6 -14 9 -28 5 -31 -8 -8 -56 28 -57 44 0
23 40 13 52 -13z m16 -127 c12 -12 17 -58 6 -58 -13 0 -34 30 -34 49 0 24 10
27 28 9z m122 -648 c0 -5 -7 -10 -15 -10 -8 0 -15 5 -15 10 0 6 7 10 15 10 8
0 15 -4 15 -10z m-534 -61 c1 -25 -1 -28 -8 -15 -5 10 -7 24 -4 32 8 21 11 17
12 -17z m47 -292 c2 -20 0 -34 -5 -31 -4 3 -8 21 -8 41 0 45 10 38 13 -10z
m146 -880 c5 -13 7 -36 4 -51 l-6 -28 -13 32 c-17 38 -18 70 -4 70 6 0 14 -10
19 -23z m8 -209 c-3 -8 -6 -5 -6 6 -1 11 2 17 5 13 3 -3 4 -12 1 -19z m35
-213 c3 -14 1 -25 -3 -25 -5 0 -9 11 -9 25 0 14 2 25 4 25 2 0 6 -11 8 -25z
m43 -255 c3 -5 1 -10 -4 -10 -6 0 -11 5 -11 10 0 6 2 10 4 10 3 0 8 -4 11 -10z
m71 -467 c-11 -11 -19 6 -11 24 8 17 8 17 12 0 3 -10 2 -21 -1 -24z m299 -733
c3 -5 -1 -10 -9 -10 -9 0 -16 5 -16 10 0 6 4 10 9 10 6 0 13 -4 16 -10z"/>
<path d="M5442 7126 c1 -14 6 -22 10 -20 12 7 10 44 -2 44 -5 0 -9 -11 -8 -24z"/>
<path d="M5478 7015 c-3 -14 -1 -28 3 -31 5 -3 9 1 9 10 0 8 3 21 6 30 3 9 2
16 -4 16 -5 0 -12 -11 -14 -25z"/>
<path d="M6069 6703 c-1 -5 -1 -15 0 -24 2 -19 -9 -21 -117 -19 -66 0 -84 -2
-88 -15 -4 -8 -24 -18 -45 -21 -21 -4 -37 -10 -34 -14 9 -15 -42 -47 -91 -58
-51 -11 -98 -7 -89 9 3 4 -3 8 -12 8 -41 0 -102 14 -97 23 3 5 -6 6 -23 2 -15
-4 -32 -13 -36 -20 -7 -12 -82 -40 -98 -36 -3 0 -20 -12 -38 -29 -18 -16 -39
-29 -47 -29 -17 0 -19 -17 -2 -22 6 -2 -4 -10 -23 -18 -44 -18 -179 -153 -179
-180 0 -6 -4 -10 -9 -10 -5 0 -12 -15 -15 -34 -5 -23 -19 -44 -49 -67 -46 -37
-62 -53 -122 -120 -22 -24 -54 -49 -70 -54 -20 -7 -29 -17 -27 -28 3 -18 -14
-24 -20 -7 -2 6 -15 -1 -30 -15 -15 -14 -30 -25 -34 -25 -12 0 -193 -175 -245
-237 -27 -32 -52 -103 -64 -175 -3 -21 -10 -38 -16 -38 -6 0 -7 -6 -4 -12 4
-7 -1 -4 -9 7 -9 11 -14 25 -12 31 3 7 -2 15 -10 18 -17 6 -18 -3 -4 -39 9
-24 9 -25 -13 -14 -18 9 -20 9 -9 -2 19 -20 14 -60 -12 -104 -19 -31 -22 -43
-13 -54 9 -11 9 -15 0 -18 -14 -5 -18 -45 -6 -57 11 -11 11 -46 0 -39 -6 4 -8
0 -4 -9 3 -9 3 -19 -1 -22 -10 -11 -13 -56 -3 -56 5 0 12 6 14 13 3 6 6 2 6
-11 1 -12 -4 -30 -10 -40 -8 -13 -7 -41 5 -107 28 -161 35 -189 60 -240 14
-27 26 -58 26 -68 0 -29 26 -72 52 -85 12 -7 32 -25 43 -40 19 -25 20 -48 26
-317 5 -214 11 -312 24 -375 9 -47 18 -98 20 -114 13 -122 38 -198 61 -189 10
4 12 0 8 -11 -5 -12 -2 -15 9 -10 9 3 26 -1 39 -10 12 -9 32 -16 44 -16 12 0
24 -5 26 -10 2 -6 43 -13 91 -15 74 -4 89 -3 94 11 5 14 16 15 61 10 32 -4 78
-2 108 5 45 10 55 10 68 -3 8 -9 12 -18 9 -22 -4 -3 1 -6 10 -6 10 0 17 -5 17
-11 0 -5 -4 -7 -10 -4 -5 3 -10 -1 -10 -9 0 -9 4 -16 9 -16 5 0 15 -15 22 -32
14 -34 16 -40 18 -71 0 -10 5 -16 9 -13 4 2 8 -3 9 -12 4 -62 25 -179 37 -203
8 -16 10 -29 5 -29 -5 0 -9 -7 -9 -15 0 -8 4 -15 9 -15 10 0 15 -21 27 -105 4
-34 9 -44 13 -32 6 16 10 14 25 -16 22 -40 18 -108 -8 -136 -12 -13 -15 -31
-12 -65 2 -25 0 -49 -5 -52 -5 -3 -9 7 -9 21 0 16 -4 24 -11 20 -5 -4 -9 -14
-7 -23 3 -16 -45 -48 -65 -43 -5 1 -6 -3 -3 -8 4 -5 -2 -12 -11 -15 -10 -3
-30 -17 -45 -31 -16 -14 -28 -22 -28 -18 0 4 -8 -8 -18 -27 -15 -32 -46 -70
-56 -70 -2 0 -2 10 0 23 3 13 -2 8 -14 -14 -41 -79 -50 -173 -45 -490 l5 -296
-36 -21 c-19 -11 -57 -28 -83 -37 -27 -9 -61 -23 -78 -30 -31 -14 -397 -136
-590 -198 -115 -36 -319 -120 -345 -142 -8 -7 -31 -20 -50 -30 -19 -9 -56 -35
-82 -56 -26 -22 -49 -39 -52 -39 -3 0 -22 -16 -43 -35 -21 -19 -46 -35 -55
-35 -26 0 -75 -74 -83 -123 -7 -41 -32 -111 -61 -173 -15 -31 -16 -31 -57 -22
-23 5 -46 14 -52 20 -7 8 -3 9 13 5 12 -3 20 -1 17 3 -3 5 -19 11 -35 14 -92
18 -95 18 -84 7 11 -12 7 -71 -6 -71 -14 0 -21 69 -9 92 7 13 15 25 18 28 36
29 105 155 141 258 19 51 21 67 11 88 -6 14 -11 38 -11 54 0 16 -4 31 -9 34
-4 3 -11 19 -15 36 -3 18 -10 29 -16 25 -6 -3 -10 4 -10 17 0 13 -14 39 -32
58 -18 19 -31 38 -30 43 1 4 -2 25 -7 47 -5 22 -6 40 -2 40 4 0 13 20 20 45 7
24 22 54 32 66 11 13 22 32 24 43 12 51 27 124 32 156 6 45 31 100 45 100 13
0 4 96 -11 114 -6 6 -13 27 -16 46 -7 41 -12 50 -28 50 -28 0 -25 125 5 187 8
16 6 28 -8 52 -18 30 -18 31 2 48 11 10 29 23 40 29 10 6 20 20 22 31 2 12 12
29 22 38 18 16 20 16 49 -1 17 -10 34 -26 37 -36 3 -10 14 -18 25 -18 12 0 19
-7 19 -19 0 -11 4 -22 9 -25 5 -3 12 -20 15 -38 9 -48 19 -58 60 -68 28 -6 36
-5 36 6 0 8 6 32 13 54 11 37 14 40 40 34 20 -4 27 -2 27 9 0 9 6 18 13 20 7
3 8 6 1 6 -15 1 -5 51 11 57 9 4 11 43 8 151 -2 80 -6 150 -9 155 -4 5 -12 32
-20 60 -12 48 -12 50 7 55 14 4 19 12 16 24 -3 11 -1 19 5 19 5 0 8 6 6 12 -3
8 -19 12 -41 10 -44 -4 -46 5 -9 41 19 18 35 25 45 21 11 -4 17 -1 17 9 0 19
37 45 110 77 67 29 104 57 51 39 -29 -10 -36 -10 -46 4 -7 9 -15 14 -18 10 -4
-3 -7 -3 -7 1 0 3 10 11 23 16 19 8 17 9 -15 9 -20 1 -39 -3 -42 -8 -4 -5 -26
-16 -50 -24 -42 -14 -43 -14 -41 7 2 11 10 38 18 59 9 21 12 37 6 37 -16 0
-39 27 -31 35 4 5 -1 6 -10 2 -20 -7 -31 16 -15 32 8 8 6 11 -7 11 -13 0 -16
5 -10 22 6 20 5 21 -8 10 -12 -10 -19 -8 -38 8 -13 11 -27 20 -31 20 -4 0 -11
9 -14 20 -3 11 -11 20 -16 20 -21 0 -141 94 -150 117 -6 17 -14 23 -25 19 -12
-5 -14 -1 -9 15 6 19 4 21 -18 15 -32 -8 -37 5 -35 99 1 69 -7 115 -20 115
-10 0 -9 -163 2 -178 4 -7 5 -16 2 -19 -3 -4 -6 -2 -6 4 0 5 -6 10 -12 11 -7
1 -62 15 -123 31 -60 17 -161 44 -222 60 -62 17 -121 34 -130 39 -46 24 -224
52 -343 54 -101 2 -143 -2 -220 -21 -160 -38 -225 -67 -304 -135 -39 -33 -77
-65 -84 -71 -8 -5 -27 -22 -44 -37 -17 -16 -39 -28 -48 -28 -9 0 -32 -16 -51
-36 -19 -19 -47 -42 -64 -51 -50 -26 -228 -214 -259 -273 -16 -30 -50 -86 -74
-124 -55 -83 -81 -183 -82 -306 0 -47 0 -101 0 -120 0 -19 -6 -62 -12 -95 -6
-33 -10 -114 -8 -180 3 -119 4 -138 16 -246 l6 -56 -41 -7 c-73 -11 -77 -21
-84 -209 -6 -147 1 -249 18 -277 3 -5 10 -35 16 -67 6 -32 21 -89 35 -127 13
-38 22 -77 19 -87 -15 -46 54 -131 117 -144 49 -11 56 -21 63 -83 6 -56 28
-130 59 -204 25 -58 21 -72 -21 -87 -21 -7 -84 -42 -140 -77 l-103 -64 -87 -1
c-164 -1 -385 -32 -424 -59 -15 -11 -33 -20 -41 -20 -8 0 -33 -9 -56 -20 -22
-11 -48 -20 -57 -20 -8 0 -15 -4 -15 -8 0 -4 -21 -14 -48 -22 -26 -7 -53 -20
-60 -27 -7 -7 -23 -13 -35 -13 -12 0 -40 -11 -63 -24 -23 -13 -57 -26 -76 -30
-19 -3 -44 -15 -56 -26 -12 -11 -25 -20 -29 -20 -4 0 -50 -17 -100 -37 l-93
-38 0 -117 0 -118 5503 0 c3026 0 5496 4 5489 9 -10 6 -9 10 7 14 14 3 21 0
21 -9 0 -8 10 -14 25 -14 22 0 25 5 25 33 0 17 3 43 7 56 4 17 3 22 -5 17 -7
-4 -12 -1 -12 6 0 14 -53 48 -75 48 -7 0 -25 7 -41 15 -18 9 -42 12 -71 8 -37
-5 -43 -4 -37 11 4 11 1 16 -14 16 -12 0 -22 -9 -25 -21 -3 -12 -11 -19 -19
-17 -15 5 -76 88 -77 106 -1 7 15 22 34 33 38 23 48 62 19 73 -8 3 -12 11 -9
17 13 20 -29 38 -83 36 -46 -2 -57 2 -73 22 -10 13 -19 32 -19 42 0 10 -11 35
-25 55 -35 51 -33 80 8 100 50 26 59 35 47 49 -6 7 -10 17 -9 21 6 32 -31 64
-54 46 -7 -5 -49 -9 -94 -10 l-83 0 0 27 c0 40 39 81 75 81 78 0 88 17 59 100
-19 54 -31 70 -54 70 -21 0 -75 48 -84 74 -4 11 -4 38 0 62 4 32 12 44 31 53
16 7 30 8 37 2 25 -20 84 -49 90 -44 12 12 6 31 -20 58 -14 15 -23 33 -20 41
3 8 0 11 -10 7 -9 -3 -12 0 -9 9 3 8 -3 23 -15 33 -11 10 -20 22 -20 27 0 17
-59 66 -94 79 -28 10 -36 19 -41 47 -6 32 -7 33 -23 15 -9 -10 -29 -20 -44
-21 -28 -3 -81 19 -94 39 -4 7 -3 9 4 5 7 -4 10 14 9 56 0 35 3 72 6 84 6 16
2 23 -18 32 -14 6 -24 8 -24 4 3 -21 -3 -32 -18 -32 -12 0 -14 -3 -6 -8 6 -4
14 -39 18 -78 l7 -71 -53 5 c-30 2 -58 8 -63 13 -6 6 -5 9 2 9 14 0 -5 40 -25
53 -16 10 -17 27 -2 27 5 0 7 -6 3 -12 -5 -9 -4 -10 4 -3 6 6 12 21 14 35 2
19 10 26 31 28 38 5 34 20 -8 28 -19 3 -35 9 -35 13 0 4 -9 7 -20 7 -11 0 -20
-5 -20 -12 0 -7 -10 -9 -25 -6 -32 6 -32 -10 0 -25 14 -6 23 -8 20 -4 -2 4 2
8 9 8 8 0 12 -6 9 -14 -3 -7 -6 -41 -7 -76 l-1 -62 -45 -6 c-25 -3 -58 -2 -75
2 -16 5 -37 9 -45 9 -13 0 -13 -1 0 -10 9 -6 10 -10 3 -10 -6 0 -14 4 -17 8
-3 5 -19 8 -35 7 -26 -1 -29 1 -19 13 8 9 14 10 16 3 2 -6 8 -11 12 -11 5 0 4
14 -2 32 -8 22 -13 27 -17 17 -3 -8 -14 -26 -24 -39 -14 -21 -20 -23 -36 -13
-10 6 -22 8 -27 3 -15 -14 -188 -25 -180 -11 10 15 0 14 -16 -2 -10 -10 -28
-12 -65 -7 -28 3 -59 3 -69 -1 -31 -12 -92 -10 -97 4 -4 10 -6 10 -6 0 -1 -8
-16 -13 -41 -13 -25 0 -40 5 -40 13 0 8 -3 8 -9 -2 -10 -16 -59 -20 -80 -7 -6
4 -23 5 -37 2 -24 -6 -35 8 -11 17 6 3 -7 3 -30 2 -23 -2 -48 -6 -55 -10 -10
-6 -11 -5 0 6 19 21 15 24 -36 23 -26 0 -50 5 -54 10 -5 8 -8 8 -8 0 0 -6 -14
-10 -30 -9 -17 1 -33 -2 -36 -7 -7 -11 -44 -10 -44 1 0 9 -57 27 -72 23 -5 -1
-8 2 -8 7 0 10 -47 21 -55 13 -2 -3 3 -11 13 -19 16 -13 15 -13 -3 -5 -11 5
-27 7 -35 5 -13 -4 -13 -3 0 7 12 9 0 10 -52 8 -38 -2 -68 0 -68 5 0 5 -16 7
-35 4 -50 -8 -103 2 -108 22 -6 28 30 88 58 95 28 7 32 18 10 36 -8 7 -12 16
-9 21 6 11 -43 56 -71 65 -11 4 -25 13 -31 22 -12 16 -50 12 -47 -6 2 -6 -4
-9 -13 -5 -9 3 -14 0 -12 -8 5 -22 -45 -22 -88 -2 -30 14 -38 24 -37 41 2 16
-3 22 -17 22 -11 0 -20 5 -20 11 0 15 -68 41 -91 34 -10 -4 -19 -11 -19 -16 0
-5 -7 -9 -15 -9 -8 0 -15 6 -15 14 0 8 -7 17 -16 20 -8 3 -12 10 -9 16 3 5 -1
10 -9 10 -9 0 -16 -5 -16 -11 0 -6 -12 -9 -27 -7 -16 2 -27 8 -25 16 1 7 -11
15 -28 18 -16 4 -30 10 -30 15 0 5 -15 9 -32 9 -26 0 -39 8 -63 37 -56 70 -75
104 -81 143 -4 22 -12 40 -18 40 -11 0 -14 10 -18 72 -1 15 -6 24 -11 21 -5
-3 -7 3 -6 13 2 11 -4 34 -14 53 -9 19 -17 39 -17 46 0 7 -13 22 -29 35 -25
19 -28 25 -18 41 9 14 9 21 -1 31 -11 11 -12 9 -7 -7 3 -11 -1 -6 -9 10 -8 17
-15 38 -16 49 0 12 -5 16 -14 13 -16 -6 -12 16 7 41 5 6 6 12 2 12 -5 0 -43
-35 -85 -77 -42 -43 -87 -84 -99 -91 -19 -11 -21 -10 -21 12 0 14 5 28 10 31
6 4 8 11 5 16 -4 5 1 9 9 9 11 0 16 9 16 28 0 15 11 43 25 62 14 19 25 40 25
47 0 7 5 13 12 13 6 0 9 3 6 6 -4 3 5 22 18 41 13 20 24 44 24 53 0 10 6 22
13 28 13 11 16 89 3 110 -4 7 -3 12 3 12 6 0 6 13 -1 36 -7 28 -7 39 3 45 10
6 9 12 -3 31 -8 12 -13 32 -11 43 10 49 10 113 1 148 -9 28 -8 51 2 93 11 45
11 57 1 63 -14 9 -6 97 10 107 5 3 9 21 9 40 0 19 5 34 10 34 6 0 10 11 10 25
0 14 5 25 11 25 6 0 9 7 5 15 -3 8 -2 15 2 15 8 0 31 54 32 75 1 6 11 14 23
18 14 5 18 10 10 15 -9 5 -2 20 22 46 19 22 32 42 30 46 -3 4 4 15 14 24 18
16 20 16 45 -11 14 -15 26 -33 26 -39 0 -6 13 -23 30 -37 26 -24 32 -25 62
-15 18 6 43 17 57 24 13 7 29 10 36 7 8 -2 23 5 34 16 12 12 32 21 46 21 14 0
25 5 25 10 0 6 13 10 29 10 17 0 41 12 62 30 31 27 49 35 72 31 5 -1 6 8 2 19
-5 16 -2 23 12 26 26 8 53 47 57 86 2 18 4 37 5 41 0 5 6 5 11 2 13 -8 12 20
-5 145 -24 166 -37 401 -23 417 7 9 9 35 5 72 -5 43 -3 61 6 64 9 4 8 8 -3 16
-12 8 -13 15 -3 42 7 18 10 37 6 43 -3 6 -3 8 2 4 4 -4 14 0 23 8 11 12 13 29
9 70 -5 47 -3 54 11 52 15 -3 17 7 15 78 -3 118 -40 249 -73 259 -10 3 -23 18
-29 33 -5 15 -17 38 -25 52 -8 14 -29 54 -46 89 -30 61 -72 124 -96 146 -7 6
-33 35 -60 65 -26 30 -54 54 -62 52 -8 -2 -11 1 -7 8 8 13 -46 67 -128 129
-45 35 -55 46 -46 57 6 8 8 14 3 14 -5 0 -2 5 6 10 11 7 5 10 -22 10 -21 0
-38 5 -38 10 0 6 -8 10 -17 10 -15 0 -16 2 -3 10 11 7 12 10 2 10 -16 0 -51
39 -52 57 0 7 -22 22 -50 34 -27 12 -50 26 -50 31 0 5 -7 11 -16 15 -27 10
-89 72 -80 80 4 4 29 9 54 10 26 1 121 6 212 12 91 6 235 13 320 15 85 3 193
7 240 11 47 3 137 7 200 7 64 0 106 4 95 8 -11 4 16 5 61 3 50 -4 84 -2 87 5
4 6 39 8 93 4 62 -3 85 -2 80 6 -5 8 25 11 101 11 60 0 158 2 218 4 342 13
512 19 526 19 9 -1 16 7 15 16 0 9 7 18 17 20 12 2 17 -3 17 -17 0 -16 5 -19
30 -16 30 4 259 20 450 31 52 4 111 11 130 18 l35 12 -2 78 c-2 42 -7 85 -13
94 -9 16 -9 16 -10 0 0 -12 -7 -17 -22 -15 -17 1 -23 -3 -22 -15 1 -10 -2 -18
-8 -18 -5 0 -7 -4 -4 -9 8 -12 -29 -21 -92 -21 -49 0 -52 1 -42 19 14 28 14
29 -28 50 -23 12 -43 16 -52 11 -7 -4 -19 -6 -25 -4 -7 3 -15 -4 -18 -16 -4
-16 -2 -20 9 -16 8 3 12 2 9 -3 -3 -5 0 -13 6 -17 22 -13 -23 -34 -76 -34 -50
0 -50 0 -50 32 0 26 -5 34 -26 42 -38 13 -59 2 -59 -33 0 -24 -6 -31 -31 -40
-39 -13 -109 -14 -109 -2 0 5 4 21 10 35 11 31 -3 44 -27 24 -13 -10 -15 -10
-9 0 6 9 1 11 -20 8 -28 -5 -47 -24 -38 -38 3 -4 1 -8 -4 -8 -6 0 -9 -8 -8
-17 1 -15 -9 -18 -61 -21 -61 -3 -63 -2 -63 22 0 46 -8 56 -41 44 -21 -7 -32
-19 -36 -39 -6 -31 -18 -37 -78 -39 -65 -3 -65 -3 -54 32 5 18 9 33 9 34 0 1
-15 0 -34 -1 -46 -4 -76 -22 -76 -46 0 -22 -6 -25 -68 -33 -45 -7 -45 -7 -56
47 -6 23 -11 27 -41 27 -36 0 -62 -28 -51 -55 5 -15 -12 -23 -59 -25 -59 -4
-64 -1 -67 33 -3 27 -7 32 -28 31 -14 -1 -35 -2 -47 -3 -15 -1 -23 -7 -23 -19
0 -32 -24 -50 -72 -55 -47 -4 -48 -4 -48 23 0 23 -5 28 -27 32 -40 5 -63 -1
-63 -18 0 -8 -4 -14 -10 -14 -5 0 -10 -7 -10 -15 0 -11 -12 -15 -45 -15 -53 0
-61 2 -57 14 7 20 -9 57 -20 49 -7 -4 -28 -9 -48 -13 -19 -3 -36 -11 -36 -18
-1 -6 -2 -17 -3 -23 -1 -7 -11 -9 -26 -5 -14 4 -25 2 -25 -4 0 -5 -13 -10 -30
-10 -26 0 -30 4 -30 28 0 25 -3 29 -27 26 -16 -1 -38 -2 -50 -3 -15 -1 -25 -9
-29 -26 -7 -27 -18 -32 -101 -38 -50 -4 -52 -3 -55 22 -2 16 -10 27 -22 29
-20 4 -38 -16 -31 -35 4 -13 -31 -22 -100 -26 -37 -2 -40 0 -43 26 -2 17 -10
27 -20 28 -9 0 -27 2 -40 3 -26 3 -47 -17 -39 -38 7 -19 -13 -26 -74 -26 l-48
0 5 30 c7 33 4 35 -59 44 -22 3 -35 1 -32 -5 4 -5 2 -9 -3 -9 -6 0 -8 -16 -5
-36 3 -23 1 -34 -5 -30 -13 8 -73 -14 -67 -24 3 -4 -7 -10 -20 -13 -14 -2 -28
0 -31 4 -3 5 0 9 5 9 6 0 11 5 11 10 0 6 -6 10 -14 10 -11 0 -13 10 -9 40 l6
40 -36 0 c-19 0 -38 6 -40 13 -4 10 -6 10 -6 0 -1 -7 -8 -13 -16 -13 -9 0 -12
-6 -9 -15 5 -12 -2 -15 -31 -15 -24 0 -34 4 -29 11 11 18 -17 29 -73 29 -30 0
-57 6 -65 14 -8 7 -48 18 -89 24 -41 5 -95 18 -119 29 -25 11 -85 26 -135 32
-49 7 -104 19 -122 28 -24 11 -51 13 -103 9 -50 -4 -84 -1 -113 9 -46 16 -86
19 -88 8z m-1214 -703 c-3 -5 -12 -10 -18 -10 -7 0 -6 4 3 10 19 12 23 12 15
0z m-471 -632 c-27 -44 -54 -79 -55 -72 0 5 -2 19 -5 32 -3 15 2 24 14 28 9 3
24 9 32 14 21 12 22 12 14 -2z m1715 -1424 c24 -30 21 -40 -13 -46 -27 -5 -36
7 -36 48 0 32 23 31 49 -2z m129 -652 c31 -27 29 -65 -5 -83 -16 -8 -37 -24
-48 -36 -33 -37 -53 -30 -60 21 -6 34 -2 55 16 94 23 49 24 50 49 37 14 -7 35
-22 48 -33z m132 -46 c0 -13 3 -45 7 -71 4 -34 3 -46 -5 -41 -6 4 -9 12 -6 19
2 7 -9 18 -26 25 -27 13 -42 42 -21 42 5 0 12 11 15 25 8 32 36 33 36 1z m172
-347 c2 -25 -1 -34 -14 -37 -15 -3 -18 4 -19 35 -1 21 -3 51 -5 67 l-3 30 19
-31 c10 -17 20 -46 22 -64z m118 -21 c0 -4 -10 -18 -22 -31 -13 -13 -32 -35
-42 -50 -21 -30 -36 -35 -36 -12 0 8 5 15 10 15 6 0 10 5 10 10 0 6 -7 10 -15
10 -17 0 -20 16 -5 25 6 3 10 1 10 -6 0 -8 7 -5 20 6 11 10 17 22 13 28 -3 6
-1 7 5 3 7 -4 12 -3 12 1 0 5 9 9 20 9 11 0 20 -4 20 -8z m262 -105 c9 -16 17
-44 19 -63 3 -46 -10 -120 -22 -120 -5 0 -9 -8 -9 -17 -1 -20 -26 -58 -40 -58
-9 0 -50 -49 -50 -59 0 -11 -43 -66 -52 -66 -13 0 -9 28 7 44 8 8 15 21 15 28
0 7 18 38 39 69 67 96 74 116 68 179 -4 31 -9 64 -13 73 -11 28 20 20 38 -10z
m-511 -166 c-10 -9 -11 -8 -5 6 3 10 9 15 12 12 3 -3 0 -11 -7 -18z m-45 -85
c-18 -16 -18 -16 -6 6 6 13 14 21 18 18 3 -4 -2 -14 -12 -24z m-21 -72 c-3 -5
-1 -11 4 -14 11 -7 2 -47 -16 -64 -7 -7 -13 -22 -13 -33 0 -11 -4 -17 -10 -14
-5 3 -7 0 -4 -8 3 -8 -1 -17 -9 -20 -9 -3 -18 -19 -22 -36 -7 -31 -56 -81 -80
-81 -22 0 -45 29 -45 57 0 26 25 63 43 63 17 0 74 65 97 110 50 99 44 92 53
69 4 -12 5 -25 2 -29z m-690 19 c8 -13 6 -15 -22 -23 -17 -5 -23 -3 -23 7 0
14 13 24 32 26 4 1 10 -4 13 -10z m-605 -94 c0 -8 -4 -15 -10 -15 -5 0 -10 7
-10 15 0 8 5 15 10 15 6 0 10 -7 10 -15z m2007 0 c-4 -12 17 -35 32 -35 22 0
10 -16 -13 -18 -29 -2 -86 -51 -86 -73 0 -9 -7 -20 -16 -23 -10 -4 -14 -13
-10 -22 3 -9 -5 -26 -19 -42 -17 -18 -24 -34 -20 -49 6 -25 -32 -73 -58 -73
-13 0 -15 -5 -7 -25 6 -15 6 -27 0 -30 -5 -3 -7 -18 -4 -33 4 -23 0 -29 -28
-43 -23 -11 -34 -24 -36 -42 -2 -18 -12 -28 -33 -36 -17 -6 -29 -17 -29 -27 0
-10 -3 -15 -6 -11 -9 9 -36 -21 -30 -32 10 -16 -37 -20 -58 -5 -11 7 -15 14
-8 14 17 0 15 16 -4 34 -14 15 -13 17 7 24 13 5 23 18 24 30 1 17 -1 19 -12
11 -22 -19 -15 0 17 47 17 24 38 44 47 44 17 0 83 68 83 86 0 6 9 21 20 34 12
13 18 29 16 36 -3 7 4 16 15 19 13 4 19 15 19 34 0 15 5 32 12 39 8 8 8 15 -2
27 -10 12 -10 15 5 15 14 0 15 3 5 15 -10 12 -10 15 0 15 7 0 10 7 6 16 -4 11
1 18 14 21 11 3 17 9 14 15 -7 11 14 38 38 47 27 10 108 7 105 -4z m141 -77
c32 -35 49 -110 32 -145 -13 -28 -14 -28 -23 32 -4 33 -14 67 -22 75 -17 20
-29 60 -17 60 4 0 18 -10 30 -22z m-422 -255 c-10 -10 -19 5 -10 18 6 11 8 11
12 0 2 -7 1 -15 -2 -18z m3374 -368 c0 -2 -7 -5 -15 -9 -9 -3 -15 0 -15 9 0 9
6 12 15 9 8 -4 15 -7 15 -9z m-5165 -145 c-5 -8 -11 -8 -17 -2 -6 6 -7 16 -3
22 5 8 11 8 17 2 6 -6 7 -16 3 -22z m-35 16 c0 -3 -4 -8 -10 -11 -5 -3 -10 -1
-10 4 0 6 5 11 10 11 6 0 10 -2 10 -4z m20 -40 c0 -2 -7 -9 -15 -16 -13 -11
-14 -10 -9 4 5 14 24 23 24 12z m3634 -71 c10 -49 10 -84 1 -93 -3 -4 -34 -7
-68 -7 l-61 0 -11 40 c-7 22 -15 57 -19 78 l-7 37 55 0 c30 0 58 5 61 11 11
17 41 -22 49 -66z m130 60 c-5 -11 1 -15 19 -15 29 0 36 -19 31 -79 -4 -38 -2
-41 20 -41 18 0 25 7 29 28 4 17 1 31 -8 38 -24 18 9 54 49 54 49 0 64 -18 67
-77 2 -29 0 -56 -4 -59 -4 -4 -2 -13 5 -21 16 -20 1 -30 -50 -35 -39 -3 -43
-1 -49 22 -8 36 -12 40 -28 33 -8 -3 -15 -14 -15 -25 0 -19 -4 -20 -52 -14
-28 4 -59 11 -67 16 -21 11 -56 159 -41 174 7 7 16 7 30 -2 27 -16 50 -15 50
3 0 8 4 15 10 15 5 0 7 -7 4 -15z m-350 -8 c12 -12 17 -29 32 -119 l7 -38 -47
0 c-38 0 -46 3 -46 19 0 10 -7 35 -15 54 -8 20 -15 47 -15 61 0 20 6 25 33 29
17 2 33 5 35 5 2 1 9 -4 16 -11z m-128 -14 c8 -19 10 -27 15 -88 4 -39 3 -39
-33 -43 -40 -4 -41 -2 -68 105 -10 39 -6 43 41 43 25 0 39 -5 45 -17z m818 -5
c3 -13 6 -36 7 -53 l1 -30 8 30 c6 23 8 25 9 8 0 -12 6 -25 13 -29 7 -5 8 -3
4 5 -5 7 -5 29 -1 49 4 20 10 31 12 25 3 -7 9 -13 14 -13 6 0 8 4 4 9 -3 5 -1
12 5 16 6 3 13 -1 16 -9 3 -9 14 -16 24 -16 11 0 21 -4 24 -9 3 -5 15 -11 26
-14 11 -3 18 -1 14 4 -3 5 -3 9 0 9 2 0 11 2 18 5 8 3 24 -3 36 -13 17 -15 22
-32 24 -90 2 -40 -2 -76 -8 -82 -16 -16 -44 10 -49 45 -2 17 -4 32 -5 35 -1 3
-1 16 0 29 1 15 -2 21 -9 16 -6 -3 -9 -11 -6 -16 4 -5 3 -15 -2 -21 -5 -9 -10
-3 -15 17 -4 17 -5 1 -2 -37 l5 -68 -33 0 c-61 0 -74 9 -84 53 -5 22 -15 42
-22 45 -7 2 -10 -2 -7 -10 3 -7 1 -26 -3 -43 -7 -24 -14 -30 -38 -32 -51 -3
-71 5 -79 34 -5 22 -8 24 -17 12 -8 -11 -8 -9 -3 6 17 46 17 57 4 66 -10 6
-10 9 -1 9 6 0 12 7 12 16 0 8 -4 12 -10 9 -15 -9 -12 14 4 30 7 8 23 11 34 8
11 -2 29 0 39 6 26 15 30 14 37 -11z m-949 -8 c11 -36 14 -100 4 -106 -5 -3
-22 -3 -38 1 -21 4 -30 13 -34 33 -2 15 -8 36 -12 46 -6 14 -5 17 3 12 7 -4
12 -1 12 8 0 8 10 17 23 19 12 2 25 5 29 6 4 0 10 -8 13 -19z m-3387 -12 c-2
-6 -15 -18 -28 -27 l-24 -16 19 27 c20 28 40 38 33 16z m92 2 c0 -5 -5 -10
-11 -10 -5 0 -7 5 -4 10 3 6 8 10 11 10 2 0 4 -4 4 -10z m4593 -36 c10 -13 13
-24 8 -24 -7 0 -8 -21 -4 -60 5 -50 3 -60 -10 -60 -30 0 -47 12 -47 34 0 34
-12 66 -21 60 -17 -10 -9 59 8 71 22 16 44 9 66 -21z m101 -64 c8 -79 4 -91
-27 -86 -16 2 -23 11 -25 32 -2 16 -11 35 -20 42 -14 11 -15 14 -3 21 8 6 11
16 7 26 -9 26 21 57 44 45 13 -7 19 -28 24 -80z m90 53 c11 -59 10 -138 -2
-137 -7 1 -19 2 -28 3 -10 0 -15 9 -14 24 1 12 1 24 0 27 -9 25 -8 85 1 96 18
22 37 16 43 -13z m88 13 c11 -8 15 -20 11 -34 -3 -12 -1 -22 4 -22 10 0 10
-86 0 -96 -3 -3 -14 -3 -25 0 -19 6 -23 18 -33 111 -5 55 8 68 43 41z m246
-11 c8 -7 15 -43 17 -89 l4 -77 -49 3 -48 3 -5 45 c-2 25 -6 50 -7 55 -1 6 -2
27 -1 47 1 37 1 37 39 31 20 -3 43 -11 50 -18z m-134 -7 c3 -13 6 -49 6 -81 0
-55 -1 -58 -22 -55 -17 2 -24 12 -29 38 -3 19 -7 40 -9 45 -1 6 -2 25 -1 43 1
27 5 32 25 32 16 0 26 -7 30 -22z m-5294 3 c0 -12 -20 -25 -27 -18 -7 7 6 27
18 27 5 0 9 -4 9 -9z m5582 -10 c12 -10 18 -140 7 -147 -15 -9 -77 -9 -86 -1
-10 10 -23 128 -17 150 5 16 12 17 47 12 23 -4 45 -10 49 -14z m136 -4 c20 -9
22 -18 22 -80 l0 -70 -47 7 c-25 3 -48 7 -49 9 -1 1 -4 33 -6 70 -3 88 9 98
80 64z m-5808 -12 c-7 -9 -15 -13 -18 -10 -3 2 1 11 8 20 7 9 15 13 18 10 3
-2 -1 -11 -8 -20z m4207 3 c-3 -8 -6 -5 -6 6 -1 11 2 17 5 13 3 -3 4 -12 1
-19z m-627 2 c0 -5 -2 -10 -4 -10 -3 0 -8 5 -11 10 -3 6 -1 10 4 10 6 0 11 -4
11 -10z m2353 -28 c21 -18 22 -42 2 -88 -10 -25 -20 -35 -32 -32 -14 2 -19 17
-24 68 -3 36 -4 68 -2 72 5 9 33 -1 56 -20z m-6113 -22 c0 -5 -5 -10 -11 -10
-5 0 -7 5 -4 10 3 6 8 10 11 10 2 0 4 -4 4 -10z m398 -21 c-6 -4 -7 -12 -4
-18 4 -6 1 -11 -8 -11 -21 0 -25 11 -15 38 7 19 11 21 23 10 9 -8 10 -15 4
-19z m182 6 c0 -19 -5 -25 -22 -25 -21 1 -21 2 -5 11 9 5 17 17 17 24 0 8 2
15 5 15 3 0 5 -11 5 -25z m-64 -11 c-4 -9 -9 -15 -11 -12 -3 3 -3 13 1 22 4 9
9 15 11 12 3 -3 3 -13 -1 -22z m-206 -4 c0 -13 -28 -25 -38 -16 -3 4 0 11 8
16 20 13 30 12 30 0z m-440 -80 c0 -13 -7 -20 -20 -20 -12 0 -20 7 -20 16 0
10 6 14 15 10 8 -3 15 -1 15 4 0 6 2 10 5 10 3 0 5 -9 5 -20z m550 -6 c0 -8
-4 -12 -10 -9 -5 3 -10 10 -10 16 0 5 5 9 10 9 6 0 10 -7 10 -16z m117 0 c2
-6 -7 -10 -19 -9 -13 1 -28 -5 -35 -14 -13 -17 -17 -3 -7 24 7 18 55 17 61 -1z
m3383 13 c0 -1 -4 -16 -9 -34 -7 -24 -6 -35 5 -44 16 -13 19 -45 4 -54 -6 -4
-9 -1 -8 7 2 9 -7 12 -31 10 -20 -2 -31 0 -27 6 3 6 1 23 -6 38 -9 20 -10 28
-1 31 6 2 9 13 6 23 -5 17 0 20 31 20 20 0 36 -1 36 -3z m-4145 -28 c-4 -5
-13 -9 -21 -9 -12 0 -12 2 -2 14 14 15 32 11 23 -5z m572 6 c0 -8 -4 -15 -9
-15 -10 0 -11 14 -1 23 9 10 10 9 10 -8z m3705 -22 c11 -24 14 -39 7 -43 -11
-7 -2 -40 12 -40 5 0 9 -9 9 -20 0 -17 -7 -20 -46 -20 l-47 0 7 38 c3 22 2 42
-2 46 -4 4 -7 23 -7 42 -1 30 2 34 25 34 19 -1 29 -9 42 -37z m346 22 c2 -2 6
-39 9 -84 3 -56 2 -81 -6 -81 -6 0 -11 3 -11 8 0 4 -26 7 -57 7 l-58 0 -2 35
c-1 19 -5 52 -9 74 -4 25 -2 41 5 45 10 7 121 3 129 -4z m-198 -20 c0 -14 1
-28 2 -32 1 -5 5 -24 9 -43 5 -19 6 -43 3 -52 -6 -19 -44 -25 -44 -7 0 6 -7 8
-16 5 -8 -3 -13 -2 -10 3 3 5 -1 12 -9 15 -13 4 -14 10 -5 26 7 13 7 20 1 20
-6 0 -10 20 -9 45 l2 45 38 0 c34 0 38 -3 38 -25z m-4475 5 c-3 -5 -12 -10
-18 -10 -7 0 -6 4 3 10 19 12 23 12 15 0z m909 -22 c7 -5 4 -8 -6 -8 -12 0
-18 7 -17 23 0 15 2 17 6 7 3 -8 11 -18 17 -22z m3883 6 c26 -9 51 -21 54 -26
3 -5 7 -36 8 -68 l2 -60 -29 0 c-16 0 -43 3 -60 6 -28 6 -30 9 -35 63 -3 31
-8 66 -12 79 -9 27 5 28 72 6z m166 -46 c12 -17 22 -49 25 -83 l4 -55 -36 0
c-30 0 -38 5 -46 26 -6 14 -10 36 -10 49 0 13 -7 31 -16 39 -8 9 -11 16 -5 16
5 0 13 9 16 21 9 28 43 21 68 -13z m153 20 c4 -7 9 -44 11 -84 l4 -71 -32 -7
c-57 -11 -58 -11 -54 51 2 31 -2 64 -7 73 -18 29 -3 50 36 50 19 0 38 -5 42
-12z m139 -12 c15 -11 20 -30 23 -83 l4 -70 -45 -1 c-44 -2 -44 -2 -51 35 -8
50 -8 118 1 126 11 12 48 8 68 -7z m103 5 c9 -5 16 -36 19 -85 5 -76 5 -76
-20 -76 -21 0 -25 5 -26 38 0 20 -1 51 -2 67 -3 66 1 74 29 56z m110 -50 c-3
-28 -2 -49 1 -48 11 4 13 -13 7 -47 -5 -28 -10 -33 -26 -29 -17 5 -20 14 -20
74 0 41 -5 71 -12 75 -8 5 -6 10 8 15 42 16 47 12 42 -40z m-5475 31 c-13 -8
-12 -29 1 -51 6 -9 5 -12 -5 -9 -26 9 -24 68 3 68 10 0 10 -2 1 -8z m5769 -14
c2 -41 7 -73 13 -98 6 -28 -3 -47 -25 -52 -11 -2 -15 7 -16 37 -1 22 -5 61 -9
88 -6 43 -5 47 14 47 15 0 21 -7 23 -22z m242 -21 c13 -51 16 -117 7 -117 -6
0 -8 -6 -5 -14 4 -11 -1 -14 -23 -11 -15 2 -36 4 -47 4 -16 1 -18 7 -13 41 3
22 1 43 -4 46 -13 7 -11 20 4 36 8 7 19 24 26 36 9 18 16 20 30 12 10 -5 21
-20 25 -33z m300 21 c3 -13 6 -51 6 -86 0 -70 -7 -78 -61 -65 -32 9 -34 12
-39 59 -8 71 13 114 56 114 24 0 33 -5 38 -22z m-2547 -20 c-3 -7 -5 -2 -5 12
0 14 2 19 5 13 2 -7 2 -19 0 -25z m119 17 c10 -26 -1 -35 -13 -10 -6 14 -7 25
-2 25 5 0 12 -7 15 -15z m192 -2 c2 -8 -5 -13 -17 -13 -12 0 -21 6 -21 16 0
18 31 15 38 -3z m1503 -60 c2 -40 0 -75 -4 -79 -16 -16 -37 24 -43 83 -6 59
-6 61 17 65 13 2 25 4 26 3 1 0 3 -33 4 -72z m576 45 c3 -10 8 -18 12 -18 3 0
6 -27 6 -60 0 -63 1 -62 -55 -64 -35 -1 -40 9 -40 91 0 60 3 72 18 75 28 6 54
-4 59 -24z m-6098 15 c0 -5 -4 -17 -9 -28 -8 -17 -8 -16 -7 8 1 15 5 27 9 27
4 0 8 -3 7 -7z m238 -25 c-3 -8 -6 -5 -6 6 -1 11 2 17 5 13 3 -3 4 -12 1 -19z
m3893 12 c0 -5 7 -10 15 -10 9 0 12 -6 9 -15 -4 -8 -10 -15 -16 -15 -5 0 -6 5
-3 10 6 10 -13 14 -47 11 -12 -2 -16 3 -12 13 7 17 54 22 54 6z m1675 -25 c17
-14 26 -80 12 -94 -23 -23 -35 -11 -39 42 -4 57 2 102 10 77 3 -8 11 -19 17
-25z m-186 -7 c-1 -18 1 -42 5 -54 9 -28 -20 -56 -35 -33 -5 8 -9 28 -9 44 0
17 -3 40 -6 53 -5 19 -2 22 20 22 24 0 26 -4 25 -32z m-5289 7 c-7 -9 -15 -13
-19 -10 -3 3 1 10 9 15 21 14 24 12 10 -5z m-70 -10 c0 -8 -4 -15 -10 -15 -5
0 -7 7 -4 15 4 8 8 15 10 15 2 0 4 -7 4 -15z m3276 -12 c-10 -10 -19 5 -10 18
6 11 8 11 12 0 2 -7 1 -15 -2 -18z m374 23 c0 -3 -4 -8 -10 -11 -5 -3 -10 -1
-10 4 0 6 5 11 10 11 6 0 10 -2 10 -4z m207 -12 c-3 -3 -12 -4 -19 -1 -8 3 -5
6 6 6 11 1 17 -2 13 -5z m-3947 -8 c0 -2 -6 -9 -14 -15 -11 -9 -16 -9 -22 0
-4 7 -3 9 4 5 6 -3 13 -2 17 4 6 10 15 14 15 6z m710 -56 c0 -5 -5 -10 -11
-10 -5 0 -7 5 -4 10 3 6 8 10 11 10 2 0 4 -4 4 -10z m-880 -70 c0 -5 -4 -10
-10 -10 -5 0 -10 5 -10 10 0 6 5 10 10 10 6 0 10 -4 10 -10z m138 -35 c-2 -19
1 -36 7 -38 5 -2 3 -3 -5 -3 -8 1 -15 7 -14 14 1 6 2 23 3 37 0 14 4 25 7 25
3 0 4 -16 2 -35z m87 15 c3 -5 1 -10 -4 -10 -6 0 -11 5 -11 10 0 6 2 10 4 10
3 0 8 -4 11 -10z m92 -12 c-3 -8 -6 -5 -6 6 -1 11 2 17 5 13 3 -3 4 -12 1 -19z
m4323 -2 c34 -2 35 -3 42 -51 4 -30 3 -51 -2 -53 -6 -2 -10 -10 -10 -18 0 -9
5 -12 10 -9 6 3 10 -3 10 -14 0 -12 -4 -21 -10 -21 -5 0 -10 4 -10 9 0 5 -25
7 -55 5 -50 -4 -55 -3 -55 15 0 11 5 23 11 26 7 5 3 14 -10 26 -24 23 -25 25
-10 68 9 26 15 30 33 25 11 -4 37 -8 56 -8z m-1070 -10 c0 -8 -4 -18 -10 -21
-5 -3 -10 3 -10 14 0 12 5 21 10 21 6 0 10 -6 10 -14z m595 4 c3 -5 1 -10 -4
-10 -6 0 -11 5 -11 10 0 6 2 10 4 10 3 0 8 -4 11 -10z m665 1 c4 0 11 -16 17
-33 36 -104 25 -138 -42 -138 -42 0 -44 1 -54 38 -6 20 -11 51 -11 69 0 17 -4
35 -10 38 -5 3 -10 12 -10 20 0 10 14 12 53 10 28 -1 54 -3 57 -4z m-492 -61
c2 -14 0 -20 -7 -16 -6 4 -4 -9 4 -28 19 -45 19 -65 0 -40 -8 11 -15 14 -15 7
0 -16 -20 -18 -20 -2 0 5 -11 26 -24 45 -25 38 -24 70 3 77 24 6 56 -17 59
-43z m142 22 c0 -33 -20 -60 -42 -54 -10 2 -18 9 -18 14 0 6 -7 5 -15 -2 -13
-10 -15 -9 -15 9 0 40 16 56 54 56 31 0 36 -3 36 -23z m-326 -13 c-6 -11 -1
-11 20 -3 21 8 20 21 -1 27 -14 4 -12 5 5 6 23 1 25 -2 16 -35 -6 -24 -50 -50
-52 -31 -1 7 -4 26 -8 42 -7 27 -6 29 9 16 9 -7 14 -17 11 -22z m-4511 6 c-3
-9 -8 -14 -10 -11 -3 3 -2 9 2 15 9 16 15 13 8 -4z m5290 -1 c-3 -8 4 -17 18
-22 12 -5 23 -17 24 -28 1 -10 5 -35 9 -55 8 -36 7 -36 -24 -31 -21 3 -30 9
-26 18 3 8 -1 14 -10 14 -13 0 -15 7 -11 33 3 20 -1 38 -10 49 -18 20 -12 33
16 35 13 1 18 -3 14 -13z m411 -31 c3 -21 5 -57 5 -80 0 -42 -1 -42 -20 -25
-13 13 -20 36 -23 80 -5 55 -3 62 14 62 13 0 20 -10 24 -37z m99 -19 c7 -70
-1 -96 -19 -63 -7 13 -11 31 -8 40 2 9 -2 19 -11 23 -20 7 -19 33 3 45 27 16
29 14 35 -45z m-364 16 c17 0 21 -4 16 -19 -3 -11 -1 -22 5 -26 16 -10 13 -75
-4 -75 -8 0 -16 -5 -18 -11 -2 -7 -13 -9 -25 -5 -18 6 -21 14 -21 49 1 23 -2
60 -6 81 -6 38 -6 39 12 23 10 -9 29 -17 41 -17z m125 5 c38 -16 45 -29 21
-39 -18 -7 -20 -46 -2 -46 8 0 7 -4 -3 -10 -26 -17 -32 -11 -25 23 4 17 4 29
0 25 -8 -7 -35 35 -35 53 0 12 1 12 44 -6z m1054 -4 c38 -24 26 -173 -14 -179
-39 -5 -49 14 -52 97 -4 70 -2 80 14 84 30 7 38 7 52 -2z m-561 -23 c-3 -8 -6
-5 -6 6 -1 11 2 17 5 13 3 -3 4 -12 1 -19z m278 -8 c17 -33 20 -76 5 -85 -5
-3 -10 -19 -10 -36 0 -29 -20 -39 -46 -21 -16 10 -26 87 -15 114 5 13 12 31
15 41 8 26 34 20 51 -13z m134 -2 c10 -32 15 -86 12 -119 -1 -21 -51 -35 -62
-18 -4 7 -10 44 -14 82 -6 54 -4 71 6 78 28 17 47 9 58 -23z m-392 -10 c-3 -7
-5 -2 -5 12 0 14 2 19 5 13 2 -7 2 -19 0 -25z m-1576 8 c5 3 9 0 9 -6 0 -15
-23 -7 -26 8 -1 7 0 8 3 2 2 -5 9 -8 14 -4z m349 -16 c0 -10 -7 -20 -15 -24
-24 -9 -45 4 -45 28 0 19 4 22 30 18 20 -3 30 -10 30 -22z m-435 10 c-3 -5
-13 -10 -21 -10 -8 0 -14 5 -14 10 0 6 9 10 21 10 11 0 17 -4 14 -10z m1476
-1 c17 -8 19 -16 13 -42 -13 -64 -39 -46 -43 31 -1 25 2 26 30 11z m-2104 -21
c-3 -8 -6 -5 -6 6 -1 11 2 17 5 13 3 -3 4 -12 1 -19z m2213 -8 c0 -24 -3 -28
-17 -23 -39 14 -45 53 -8 53 21 0 25 -5 25 -30z m-2044 -17 c-11 -11 -17 4 -9
23 7 18 8 18 11 1 2 -10 1 -21 -2 -24z m544 16 c0 -14 -17 -10 -23 5 -4 10 -1
13 9 9 7 -3 14 -9 14 -14z m40 0 c0 -5 -4 -9 -10 -9 -5 0 -10 7 -10 16 0 8 5
12 10 9 6 -3 10 -10 10 -16z m110 11 c0 -5 -7 -10 -15 -10 -8 0 -15 5 -15 10
0 6 7 10 15 10 8 0 15 -4 15 -10z m1445 -20 c3 -5 -1 -10 -10 -10 -9 0 -13 5
-10 10 3 6 8 10 10 10 2 0 7 -4 10 -10z m-6603 -108 c-11 -26 -30 -76 -42
-112 -12 -36 -32 -87 -44 -115 -13 -27 -36 -79 -51 -115 -16 -36 -35 -74 -43
-85 l-14 -20 7 20 c4 11 8 28 9 38 0 9 4 17 8 17 5 0 4 9 -2 19 -13 26 -13 57
2 81 10 15 9 24 -2 44 -21 41 -35 34 -107 -53 -62 -74 -81 -91 -103 -91 -21 0
-22 3 -16 43 4 23 11 46 17 52 5 5 9 17 9 27 0 23 76 106 133 144 23 16 44 32
45 37 2 4 7 7 12 7 14 0 123 78 160 113 31 31 35 32 38 15 2 -11 -5 -41 -16
-66z m6315 61 c4 -11 -26 -27 -35 -19 -2 3 -2 12 2 21 6 18 27 16 33 -2z m282
-34 c-24 -15 -29 -10 -11 11 10 12 18 16 21 9 2 -6 -3 -15 -10 -20z m766 -89
c8 -15 12 -30 10 -32 -3 -3 6 -17 20 -32 15 -16 25 -39 25 -56 0 -25 -5 -30
-35 -36 -20 -3 -37 -5 -39 -3 -17 20 -84 164 -80 171 9 14 46 26 67 20 10 -2
24 -17 32 -32z m-2165 10 c0 -5 -9 -10 -20 -10 -11 0 -20 5 -20 10 0 6 9 10
20 10 11 0 20 -4 20 -10z m536 -4 c15 -8 32 -12 37 -9 5 3 6 -3 3 -15 -4 -11
-2 -23 4 -27 8 -5 9 -20 5 -43 -4 -24 -2 -37 6 -43 21 -13 4 -21 -54 -24 -48
-3 -56 -1 -65 18 -6 12 -11 33 -10 47 1 14 -1 42 -5 62 -7 35 -6 37 20 41 15
2 29 5 29 6 1 0 14 -6 30 -13z m-226 0 c0 -2 -7 -9 -15 -16 -12 -10 -15 -10
-15 4 0 9 7 16 15 16 8 0 15 -2 15 -4z m343 -23 c23 7 48 -31 57 -89 6 -32 10
-60 10 -61 0 -2 -11 -3 -25 -3 -22 0 -25 3 -19 25 5 19 2 25 -10 25 -17 0 -22
26 -6 32 6 2 2 19 -10 40 -11 21 -19 44 -19 50 1 7 3 5 6 -5 3 -10 10 -16 16
-14z m-603 -26 c0 -5 -4 -5 -10 -2 -5 3 -10 14 -10 23 0 15 2 15 10 2 5 -8 10
-19 10 -23z m116 1 c-2 -18 -14 -51 -26 -73 l-21 -40 7 40 c4 22 7 45 7 52 0
7 4 10 8 8 4 -3 10 6 13 20 9 36 17 31 12 -7z m191 9 c8 -17 7 -28 -2 -40 -16
-22 -45 -12 -45 17 0 18 -2 17 -16 -9 -26 -51 -34 -52 -34 -7 0 23 5 42 10 42
6 0 10 -7 10 -16 0 -12 6 -10 21 10 25 32 43 33 56 3z m-536 -14 c-8 -15 -10
-15 -11 -2 0 17 10 32 18 25 2 -3 -1 -13 -7 -23z m309 18 c0 -6 -4 -13 -10
-16 -5 -3 -10 1 -10 9 0 9 5 16 10 16 6 0 10 -4 10 -9z m73 -38 c7 -9 5 -13
-7 -13 -11 0 -16 8 -15 28 0 15 3 21 6 12 3 -8 10 -21 16 -27z m-293 -6 c0 -5
-4 -5 -10 -2 -5 3 -10 14 -10 23 0 15 2 15 10 2 5 -8 10 -19 10 -23z m115 16
c2 -7 11 -13 20 -13 9 0 15 -9 15 -25 0 -30 -20 -33 -27 -5 -4 15 -11 18 -27
14 -24 -6 -52 18 -42 35 8 13 55 8 61 -6z m770 -10 c-3 -15 -12 -31 -18 -35
-8 -5 -6 -8 6 -8 9 0 17 -7 17 -15 0 -8 -7 -15 -15 -15 -33 0 -49 85 -17 93
32 9 34 7 27 -20z m-407 -18 c1 -14 -2 -25 -8 -25 -16 0 -22 21 -10 35 16 19
15 19 18 -10z m-635 -16 c4 -16 2 -17 -14 -8 -10 5 -19 16 -19 24 0 20 27 8
33 -16z m99 9 c-6 -24 -18 -23 -25 1 -3 14 0 19 13 18 11 -1 15 -7 12 -19z
m1068 -9 c0 -22 -18 -24 -42 -5 -27 20 -21 33 12 28 21 -3 30 -10 30 -23z
m-4770 0 c0 -6 -4 -7 -10 -4 -5 3 -10 11 -10 16 0 6 5 7 10 4 6 -3 10 -11 10
-16z m5800 11 c0 -5 -7 -10 -15 -10 -8 0 -15 5 -15 10 0 6 7 10 15 10 8 0 15
-4 15 -10z m101 -30 c17 -31 18 -35 3 -38 -8 -2 -26 -1 -40 2 -18 5 -24 13
-24 35 0 54 33 55 61 1z m-6266 20 c-3 -5 -12 -10 -18 -10 -7 0 -6 4 3 10 19
12 23 12 15 0z m4125 -42 c0 -26 -25 -33 -52 -14 -17 13 -19 16 -6 16 9 0 20
-4 23 -10 8 -13 25 -13 25 1 0 5 -4 7 -10 4 -6 -4 -10 7 -10 27 1 31 1 32 15
14 8 -11 15 -28 15 -38z m1329 17 c-7 -7 -13 -5 -19 5 -15 24 -11 31 10 18 13
-9 16 -16 9 -23z m392 18 c0 -15 2 -15 9 2 7 17 9 14 11 -15 1 -19 1 -46 0
-60 -1 -20 1 -22 9 -10 7 11 10 6 10 -22 0 -32 -3 -38 -21 -38 -12 0 -23 8
-26 19 -3 11 -11 22 -19 25 -27 10 -12 116 16 116 6 0 10 -8 11 -17z m159 2
c0 -8 5 -15 10 -15 6 0 10 -11 10 -25 0 -14 5 -34 11 -44 7 -10 9 -30 5 -44
-5 -22 -12 -27 -36 -27 -17 0 -30 5 -30 10 0 6 9 10 20 10 11 0 20 5 20 11 0
5 5 7 10 4 6 -3 10 -1 10 5 0 6 -14 13 -31 17 -32 6 -62 54 -40 61 6 2 11 15
11 28 0 15 6 24 15 24 8 0 15 -7 15 -15z m155 -47 c-2 -24 -10 -47 -18 -53 -8
-5 -16 -17 -20 -25 -3 -8 -6 -2 -6 15 -1 17 -4 39 -7 51 -6 23 18 54 41 54 10
0 13 -11 10 -42z m-1920 12 c18 -20 17 -20 -12 -20 -22 0 -32 6 -36 20 -4 14
0 20 12 20 10 0 26 -9 36 -20z m177 -12 c-8 -8 -9 -4 -5 13 4 13 8 18 11 10 2
-7 -1 -18 -6 -23z m743 11 c0 -8 -8 -13 -17 -13 -24 2 -23 -8 2 -24 11 -7 20
-17 20 -23 0 -5 -5 -7 -10 -4 -6 4 -17 1 -25 -5 -21 -18 -32 -5 -28 32 3 23 1
29 -5 19 -7 -10 -11 -10 -17 -1 -8 13 -9 13 30 27 36 13 50 11 50 -8z m-639
-9 c8 0 14 -4 14 -10 0 -5 -4 -10 -8 -10 -12 0 -32 22 -31 35 0 5 3 4 6 -2 2
-7 11 -13 19 -13z m-756 -9 c0 -6 -4 -13 -10 -16 -5 -3 -10 1 -10 9 0 9 5 16
10 16 6 0 10 -4 10 -9z m1495 -61 c3 -5 1 -10 -4 -10 -6 0 -11 5 -11 10 0 6 2
10 4 10 3 0 8 -4 11 -10z m1285 -108 c21 -21 27 -35 23 -54 -4 -20 1 -30 16
-40 12 -7 21 -23 21 -35 0 -18 -6 -23 -27 -23 -16 0 -35 6 -44 13 -19 14 -49
70 -49 90 0 8 -7 20 -15 27 -11 9 -12 16 -2 31 17 27 44 24 77 -9z m-2240 -14
c0 -16 -3 -19 -11 -11 -6 6 -8 16 -5 22 11 17 16 13 16 -11z m607 0 c-3 -8 -6
-5 -6 6 -1 11 2 17 5 13 3 -3 4 -12 1 -19z m-840 -40 c-3 -8 -6 -5 -6 6 -1 11
2 17 5 13 3 -3 4 -12 1 -19z m763 -7 c0 -11 5 -23 10 -26 6 -3 10 -16 10 -28
0 -12 -4 -17 -8 -12 -15 20 -80 5 -67 -16 4 -5 -1 -9 -9 -9 -19 0 -30 17 -16
25 6 4 8 16 5 28 -5 17 -4 19 4 7 9 -12 11 -9 11 13 0 24 3 27 20 22 11 -4 20
-2 20 4 0 6 5 11 10 11 6 0 10 -9 10 -19z m300 -27 c0 -1 -9 0 -20 3 -12 3
-20 14 -20 26 0 19 1 19 20 -3 11 -13 20 -24 20 -26z m-568 21 c0 -5 -5 -11
-11 -13 -6 -2 -11 4 -11 13 0 9 5 15 11 13 6 -2 11 -8 11 -13z m-467 -35 c3
-5 -1 -10 -9 -10 -9 0 -16 5 -16 10 0 6 4 10 9 10 6 0 13 -4 16 -10z m444 1
c7 -5 10 -14 7 -20 -11 -17 -23 -13 -29 9 -6 22 0 25 22 11z m-719 -15 c0 -8
-4 -18 -10 -21 -5 -3 -10 3 -10 14 0 12 5 21 10 21 6 0 10 -6 10 -14z m1141
-23 c12 -15 12 -16 -3 -10 -9 3 -18 1 -20 -5 -5 -15 -28 -1 -28 18 0 19 35 18
51 -3z m-1617 -32 c-6 -6 -24 19 -24 34 1 6 7 1 15 -9 8 -11 12 -22 9 -25z"/>
<path d="M6681 1936 c-7 -9 -10 -16 -6 -16 4 0 1 -8 -6 -17 -9 -11 -3 -10 19
6 28 20 47 41 23 27 -5 -4 -11 -1 -13 5 -2 7 -9 5 -17 -5z"/>
<path d="M6640 1775 c0 -8 5 -15 10 -15 6 0 10 7 10 15 0 8 -4 15 -10 15 -5 0
-10 -7 -10 -15z"/>
<path d="M2955 440 c3 -5 10 -10 16 -10 5 0 9 5 9 10 0 6 -7 10 -16 10 -8 0
-12 -4 -9 -10z"/>
<path d="M3783 6602 c-24 -4 -32 -21 -10 -23 6 0 3 -4 -8 -9 -11 -5 -14 -9 -6
-9 9 -1 10 -5 3 -13 -13 -17 -17 -58 -7 -81 7 -18 47 -45 44 -30 -1 4 1 15 5
24 4 9 6 45 4 80 -3 60 -4 64 -25 61z"/>
<path d="M4260 6291 c0 -6 -9 -8 -19 -6 -31 6 -63 -6 -57 -21 4 -10 -3 -14
-22 -15 -22 0 -23 -2 -9 -8 16 -6 17 -9 5 -19 -8 -6 -25 -11 -39 -10 -65 2
-92 -36 -44 -62 19 -10 33 -11 60 -3 19 6 37 7 40 3 3 -5 19 -4 37 0 17 5 35
7 39 4 5 -3 21 2 37 10 16 8 33 12 36 8 4 -3 4 1 0 11 -3 9 -1 24 6 32 10 12
9 16 -4 21 -9 3 -16 12 -16 19 0 7 -10 11 -25 9 -21 -2 -25 1 -20 17 4 10 4
19 1 19 -3 0 -6 -4 -6 -9z"/>
<path d="M10622 5720 c0 -14 2 -19 5 -12 2 6 2 18 0 25 -3 6 -5 1 -5 -13z"/>
<path d="M10695 5281 c-3 -5 -1 -12 5 -16 5 -3 10 1 10 9 0 18 -6 21 -15 7z"/>
<path d="M11560 5260 c0 -5 5 -10 11 -10 5 0 7 5 4 10 -3 6 -8 10 -11 10 -2 0
-4 -4 -4 -10z"/>
<path d="M10023 4933 c-13 -2 -23 -9 -23 -14 0 -12 2 -12 41 6 33 14 27 17
-18 8z"/>
<path d="M10175 4930 c-3 -5 -1 -10 4 -10 6 0 11 5 11 10 0 6 -2 10 -4 10 -3
0 -8 -4 -11 -10z"/>
<path d="M10343 4933 c9 -2 23 -2 30 0 6 3 -1 5 -18 5 -16 0 -22 -2 -12 -5z"/>
<path d="M9480 4920 l-35 -7 32 -2 c17 0 35 4 38 9 3 6 5 9 3 9 -2 -1 -19 -5
-38 -9z"/>
<path d="M9296 4905 c4 -8 14 -15 23 -15 13 0 14 2 2 9 -11 7 -9 10 10 14 19
3 18 5 -8 6 -25 1 -31 -2 -27 -14z"/>
<path d="M9643 4913 c9 -2 23 -2 30 0 6 3 -1 5 -18 5 -16 0 -22 -2 -12 -5z"/>
<path d="M8990 4898 c0 -4 5 -8 11 -8 5 0 8 -4 5 -9 -4 -5 5 -4 18 2 13 7 22
15 20 19 -6 10 -54 6 -54 -4z"/>
<path d="M9158 4903 c6 -2 18 -2 25 0 6 3 1 5 -13 5 -14 0 -19 -2 -12 -5z"/>
<path d="M8745 4890 c-13 -6 -1 -7 38 -6 31 2 60 6 64 9 9 10 -78 7 -102 -3z"/>
<path d="M8603 4883 c9 -2 25 -2 35 0 9 3 1 5 -18 5 -19 0 -27 -2 -17 -5z"/>
<path d="M9150 4880 c-13 -8 -12 -10 3 -10 9 0 17 5 17 10 0 12 -1 12 -20 0z"/>
<path d="M8253 4873 c9 -2 25 -2 35 0 9 3 1 5 -18 5 -19 0 -27 -2 -17 -5z"/>
<path d="M8188 4863 c6 -2 18 -2 25 0 6 3 1 5 -13 5 -14 0 -19 -2 -12 -5z"/>
<path d="M8805 4854 c-16 -8 -22 -12 -12 -9 10 3 30 5 43 5 13 0 24 5 24 10 0
14 -19 12 -55 -6z"/>
<path d="M8614 4849 c-3 -5 6 -9 20 -9 31 0 34 6 6 13 -11 3 -23 1 -26 -4z"/>
<path d="M8690 4848 c0 -4 16 -8 35 -8 19 0 35 2 35 4 0 2 -16 6 -35 8 -19 2
-35 0 -35 -4z"/>
<path d="M10780 4711 c0 -6 4 -13 10 -16 6 -3 7 1 4 9 -7 18 -14 21 -14 7z"/>
<path d="M3276 4043 c13 -27 24 -54 24 -60 0 -7 5 -13 10 -13 15 0 1 48 -24
87 -31 49 -38 40 -10 -14z"/>
<path d="M8090 4065 c0 -8 4 -15 10 -15 5 0 7 7 4 15 -4 8 -8 15 -10 15 -2 0
-4 -7 -4 -15z"/>
<path d="M3412 3735 c0 -16 2 -22 5 -12 2 9 2 23 0 30 -3 6 -5 -1 -5 -18z"/>
<path d="M3421 3674 c0 -11 3 -14 6 -6 3 7 2 16 -1 19 -3 4 -6 -2 -5 -13z"/>
<path d="M10992 3420 c0 -19 2 -27 5 -17 2 9 2 25 0 35 -3 9 -5 1 -5 -18z"/>
<path d="M5090 2519 c0 -5 5 -7 10 -4 6 3 10 8 10 11 0 2 -4 4 -10 4 -5 0 -10
-5 -10 -11z"/>
<path d="M5065 2487 c-4 -10 -5 -21 -1 -24 10 -10 18 4 13 24 -4 17 -4 17 -12
0z"/>
<path d="M3601 2254 c0 -11 3 -14 6 -6 3 7 2 16 -1 19 -3 4 -6 -2 -5 -13z"/>
<path d="M3705 2053 c-5 -13 -9 -14 -12 -5 -7 19 -33 -5 -33 -30 0 -11 -5 -29
-11 -40 -6 -12 -11 -65 -10 -126 1 -84 5 -108 18 -117 12 -9 13 -16 6 -30 -6
-10 -7 -32 -2 -53 8 -37 4 -56 -10 -47 -5 2 -11 18 -14 35 -13 61 -33 30 -65
-100 -11 -41 -34 -109 -51 -150 -72 -165 -71 -194 6 -231 40 -19 49 -20 85 -9
84 25 129 64 158 140 7 19 26 45 42 58 52 43 111 197 122 324 6 58 -14 152
-46 225 -19 43 -20 44 -43 29 -33 -21 -40 -20 -18 3 10 11 26 33 36 50 16 28
16 31 2 31 -9 0 -14 4 -11 9 7 11 -45 1 -62 -12 -10 -8 -16 -7 -22 2 -4 8 -13
10 -19 7 -6 -4 -11 -1 -12 6 0 7 -4 4 -9 -7 -7 -14 -8 -9 -4 18 6 38 -8 52
-21 20z m55 -232 c-6 -12 -15 -21 -20 -21 -11 0 -1 29 14 47 15 16 19 -2 6
-26z m-100 -276 c-7 -9 -15 -13 -18 -10 -3 2 1 11 8 20 7 9 15 13 18 10 3 -2
-1 -11 -8 -20z m66 -157 c1 -27 -3 -35 -12 -31 -18 7 -19 76 -1 70 6 -2 12
-20 13 -39z"/>
<path d="M8240 1850 c0 -5 5 -10 11 -10 5 0 7 5 4 10 -3 6 -8 10 -11 10 -2 0
-4 -4 -4 -10z"/>
<path d="M8350 1669 c0 -5 5 -7 10 -4 6 3 10 8 10 11 0 2 -4 4 -10 4 -5 0 -10
-5 -10 -11z"/>
<path d="M10215 1660 c-3 -5 1 -10 10 -10 9 0 13 5 10 10 -3 6 -8 10 -10 10
-2 0 -7 -4 -10 -10z"/>
<path d="M9781 1614 c0 -11 3 -14 6 -6 3 7 2 16 -1 19 -3 4 -6 -2 -5 -13z"/>
<path d="M9680 1569 c0 -5 5 -7 10 -4 6 3 10 8 10 11 0 2 -4 4 -10 4 -5 0 -10
-5 -10 -11z"/>
<path d="M11270 1529 c0 -16 4 -28 9 -25 8 5 3 56 -5 56 -2 0 -4 -14 -4 -31z"/>
<path d="M3391 1154 c0 -11 3 -14 6 -6 3 7 2 16 -1 19 -3 4 -6 -2 -5 -13z"/>
<path d="M11464 177 c2 -37 6 -71 10 -74 9 -9 6 55 -4 102 -7 34 -8 30 -6 -28z"/>
</g>
</svg>
